<?xml version="1.0" standalone="no"?>
<!DOCTYPE svg PUBLIC "-//W3C//DTD SVG 20010904//EN"
 "http://www.w3.org/TR/2001/REC-SVG-20010904/DTD/svg10.dtd">
<svg version="1.0" xmlns="http://www.w3.org/2000/svg"
 width="512.000000pt" height="512.000000pt" viewBox="0 0 512.000000 512.000000"
 preserveAspectRatio="xMidYMid meet">
<metadata>
Created by potrace 1.14, written by Peter Selinger 2001-2017
</metadata>
<g transform="translate(0.000000,512.000000) scale(0.100000,-0.100000)"
fill="#000000" stroke="none">
<path d="M0 5093 c0 -23 88 -116 537 -565 295 -295 535 -539 533 -541 -3 -2
-61 -31 -130 -64 -274 -134 -494 -317 -439 -367 8 -7 52 -21 99 -30 309 -62
823 -301 797 -369 -3 -8 -52 -30 -109 -50 -494 -170 -899 -508 -1093 -909 -48
-99 -76 -211 -58 -229 7 -7 28 -7 71 1 l60 12 6 45 c26 190 243 505 491 712
184 153 427 288 659 367 127 43 136 52 89 95 -107 98 -522 272 -758 319 -103
20 -125 29 -125 53 1 30 54 96 120 150 260 212 722 393 1155 451 117 16 62 21
-70 6 -131 -15 -248 -36 -393 -71 l-127 -30 -519 520 -518 521 -139 0 -139 0
0 -27z"/>
<path d="M2950 4574 c-224 -393 -225 -395 -253 -388 -62 13 -481 7 -611 -10
-328 -42 -611 -128 -899 -272 -254 -127 -457 -301 -406 -348 8 -8 59 -24 114
-36 249 -56 551 -177 716 -286 65 -43 88 -70 72 -85 -4 -4 -66 -28 -138 -54
-437 -158 -802 -444 -1014 -795 -81 -134 -135 -294 -112 -329 8 -13 21 -12 98
2 262 50 494 56 682 19 119 -24 171 -44 171 -65 -1 -6 -29 -38 -64 -69 l-63
-57 -23 50 c-13 27 -26 49 -29 49 -3 0 -82 -28 -176 -63 -168 -61 -170 -63
-173 -93 l-3 -31 -407 -148 c-224 -81 -413 -150 -419 -152 -15 -6 -18 -83 -3
-83 5 0 27 7 47 15 81 31 1144 415 1150 415 4 0 -3 -10 -14 -22 -12 -13 -41
-54 -65 -92 l-45 -69 -129 -47 -129 -47 -3 -137 c-1 -75 -1 -136 1 -136 2 0
30 9 62 20 32 11 61 20 65 20 4 0 -4 -39 -17 -88 -54 -200 -72 -462 -33 -462
4 0 32 21 63 46 l54 46 6 91 c10 176 92 467 179 640 66 132 127 216 225 314
l94 93 -31 19 c-37 22 -115 39 -260 56 -76 9 -91 13 -55 14 61 1 303 -24 369
-39 68 -15 116 -37 116 -52 0 -7 -19 -26 -41 -43 -122 -89 -271 -320 -349
-540 -87 -248 -137 -592 -92 -637 8 -8 30 4 79 44 313 254 674 413 1122 495
190 34 423 36 636 5 76 -12 141 -19 144 -17 6 6 -14 11 -99 25 -234 38 -442
163 -516 307 -23 46 -30 74 -33 136 -3 68 0 84 24 132 46 95 140 155 243 155
l45 0 -50 52 c-140 149 -212 367 -200 603 19 337 180 549 430 563 159 9 294
-45 417 -167 88 -86 159 -191 249 -366 34 -66 78 -142 99 -170 76 -100 164
-135 217 -85 l25 23 1 -89 c1 -110 16 -164 51 -183 24 -14 28 -14 48 4 53 48
81 159 81 324 1 93 -4 129 -21 182 l-22 66 46 179 c43 165 66 222 93 231 20 7
70 -47 93 -99 56 -131 84 -426 61 -642 -19 -169 -16 -163 -70 -181 -25 -8 -74
-37 -108 -65 -34 -27 -91 -64 -128 -81 -70 -34 -95 -59 -95 -95 0 -28 44 -64
79 -64 14 0 33 -5 41 -11 11 -8 1 -9 -38 -6 -41 3 -50 1 -41 -9 14 -17 93 -54
149 -70 25 -7 39 -13 33 -13 -7 -1 -13 -7 -13 -13 0 -7 -11 -26 -25 -42 -14
-16 -25 -32 -25 -35 0 -15 -160 -173 -220 -217 -106 -80 -282 -162 -412 -195
-27 -6 -48 -16 -48 -21 0 -5 -4 -7 -10 -3 -16 10 -63 -6 -51 -18 18 -18 223
32 328 80 28 12 64 28 79 33 57 22 195 124 261 193 73 78 133 159 133 183 0 7
3 14 8 14 11 0 55 120 54 149 0 21 8 30 41 45 131 60 202 199 131 255 -15 12
-33 21 -41 21 -8 0 -12 3 -10 8 3 4 14 52 26 107 73 351 48 760 -57 926 l-29
45 32 100 c61 185 80 300 80 485 0 178 -4 193 -51 202 -99 19 -454 -105 -623
-217 l-68 -45 -66 34 c-151 79 -369 160 -572 214 -77 20 -109 33 -107 42 2 8
36 70 77 139 40 69 143 247 229 395 l155 270 -57 6 c-31 4 -97 7 -147 8 l-90
0 -225 -395z m-605 -824 c155 -44 328 -131 312 -157 -4 -6 -38 -29 -77 -52
-103 -61 -180 -130 -255 -226 -80 -102 -98 -107 -129 -35 -44 106 -63 389 -32
465 19 45 37 45 181 5z m415 -212 c0 10 3 10 15 -2 8 -8 15 -18 15 -21 0 -4
-7 -5 -15 -1 -8 3 -15 1 -15 -3 0 -5 -17 -20 -37 -32 -21 -13 -42 -29 -46 -36
-4 -7 -14 -13 -21 -13 -8 0 -22 -12 -32 -27 -9 -15 -26 -37 -36 -48 -28 -29
-88 -122 -88 -134 0 -6 -4 -11 -10 -11 -5 0 -10 -8 -10 -19 0 -10 -6 -24 -14
-31 -8 -6 -12 -18 -9 -26 3 -8 -1 -14 -8 -14 -7 0 -9 -3 -6 -7 4 -3 -1 -12
-11 -19 -20 -15 -52 -1 -52 22 0 8 -4 12 -10 9 -13 -8 -24 39 -16 69 3 14 2
27 -3 30 -12 8 4 73 23 95 9 10 16 22 16 28 0 6 14 25 30 43 17 18 30 35 30
39 0 9 86 65 140 90 68 32 108 41 114 28 3 -8 9 -5 17 7 11 18 12 18 25 -5 7
-13 13 -18 14 -11z m415 -143 c84 -23 197 -81 247 -128 23 -21 53 -46 66 -55
25 -16 78 -91 74 -104 -1 -5 3 -8 9 -8 11 0 40 -61 46 -95 2 -11 6 -27 10 -35
13 -29 10 -68 -5 -63 -11 5 -11 7 0 15 9 7 7 8 -9 5 -18 -4 -30 5 -58 43 -20
27 -69 79 -109 117 -242 225 -541 242 -731 41 -56 -59 -81 -92 -116 -157 -46
-83 -70 -117 -56 -78 4 11 1 17 -8 17 -8 0 -15 7 -15 15 0 25 -1 29 -10 40
-18 21 48 225 72 225 4 0 8 7 8 16 0 25 110 126 170 156 99 50 137 58 250 54
58 -3 132 -12 165 -21z m985 -807 c0 -52 -16 -71 -37 -43 -16 23 -17 71 -1
116 l12 34 12 -30 c7 -17 13 -51 14 -77z m273 -389 c22 -35 -87 -129 -150
-129 -28 0 -33 3 -33 24 0 33 46 85 95 107 46 22 74 21 88 -2z m-216 -275 c-3
-3 -12 -4 -19 -1 -8 3 -5 6 6 6 11 1 17 -2 13 -5z"/>
<path d="M2390 3106 c0 -2 7 -7 16 -10 8 -3 12 -2 9 4 -6 10 -25 14 -25 6z"/>
<path d="M4545 4625 c-19 -18 -25 -35 -25 -65 0 -85 90 -121 151 -61 37 37 38
79 3 120 -34 41 -92 44 -129 6z"/>
<path d="M4665 4120 c-38 -5 -40 -6 -35 -35 3 -16 5 -93 5 -170 -1 -160 -23
-293 -80 -471 l-34 -109 23 -35 c108 -165 136 -564 65 -922 -11 -54 -22 -103
-25 -111 -3 -8 8 -19 28 -28 45 -19 63 -55 54 -105 -6 -30 -21 -52 -66 -95
-51 -49 -61 -65 -75 -120 -36 -140 -147 -317 -259 -412 -146 -125 -389 -232
-575 -253 -34 -4 -64 -11 -67 -16 -12 -19 231 14 353 47 48 13 89 22 92 19 3
-2 -13 -23 -35 -47 -22 -23 -53 -57 -69 -75 l-29 -33 454 -454 455 -455 137 0
138 0 0 143 0 142 -432 433 -433 433 23 17 c224 164 338 314 389 514 16 62 23
74 56 96 80 53 112 160 62 206 l-25 24 117 43 c65 23 145 52 178 65 l60 22 3
141 3 141 -28 -11 c-75 -29 -296 -109 -301 -109 -4 0 -7 102 -7 227 0 185 -4
244 -19 313 -22 102 -47 170 -80 220 l-25 38 29 84 c15 46 41 138 56 203 24
105 28 141 28 291 1 209 -3 218 -109 204z"/>
<path d="M3086 2741 c-34 -37 -45 -92 -46 -221 0 -200 39 -376 97 -434 38 -38
80 -33 108 14 18 32 20 51 20 210 0 172 -8 239 -42 343 -30 94 -94 135 -137
88z m113 -94 c17 -59 11 -121 -12 -125 -24 -5 -47 53 -47 116 0 85 37 90 59 9z"/>
<path d="M2880 1793 c-33 -12 -50 -37 -50 -72 0 -35 1 -35 13 -12 21 43 37 37
37 -12 0 -69 35 -167 76 -215 55 -65 123 -96 209 -96 91 0 132 21 241 125 46
43 99 86 116 96 l33 18 -115 6 c-128 7 -245 28 -365 66 -92 29 -186 74 -167
80 6 3 12 9 12 14 0 10 -16 11 -40 2z m269 -317 c9 -10 9 -16 1 -21 -17 -11
-60 4 -60 20 0 19 44 20 59 1z"/>
<path d="M3745 988 c-82 -63 -204 -138 -317 -195 l-118 -58 243 -242 242 -243
383 -2 c210 -2 382 -1 382 2 0 7 -764 770 -770 770 -3 0 -23 -14 -45 -32z"/>
<path d="M524 660 c-28 -11 -64 -58 -64 -82 0 -47 50 -98 96 -98 52 0 101 62
89 113 -13 51 -76 86 -121 67z"/>
<path d="M2125 354 c-82 -142 -163 -280 -178 -306 l-28 -49 82 3 82 3 168 289
c93 158 169 292 169 297 0 5 -13 9 -29 9 -15 0 -48 3 -72 6 l-44 6 -150 -258z"/>
</g>
</svg>
